<svg xmlns="http://www.w3.org/2000/svg" xmlns:xlink="http://www.w3.org/1999/xlink" xmlns:lucid="lucid" width="5381" height="1442"><g transform="translate(2880 1)" lucid:page-tab-id="0_0"><path d="M-120 6a6 6 0 0 1 6-6h948a6 6 0 0 1 6 6v148a6 6 0 0 1-6 6h-948a6 6 0 0 1-6-6z" stroke="#6db1ff" stroke-width="2" fill="#edf5ff"/><use xlink:href="#a" transform="matrix(1,0,0,1,-108,12) translate(82.31640625 81.25)"/><use xlink:href="#b" transform="matrix(1,0,0,1,-108,12) translate(396.90625 81.25)"/><use xlink:href="#c" transform="matrix(1,0,0,1,-108,12) translate(683.80078125 81.25)"/><path d="M-2500 666a6 6 0 0 1 6-6h308a6 6 0 0 1 6 6v88a6 6 0 0 1-6 6h-308a6 6 0 0 1-6-6z" stroke="#6db1ff" stroke-width="2" fill="#edf5ff"/><use xlink:href="#d" transform="matrix(1,0,0,1,-2488,672) translate(65.94270833333333 47.208333333333336)"/><use xlink:href="#e" transform="matrix(1,0,0,1,-2488,672) translate(175.13541666666669 47.208333333333336)"/><path d="M-480 606a6 6 0 0 1 6-6h308a6 6 0 0 1 6 6v88a6 6 0 0 1-6 6h-308a6 6 0 0 1-6-6z" stroke="#6db1ff" stroke-width="2" fill="#edf5ff"/><use xlink:href="#f" transform="matrix(1,0,0,1,-468,612) translate(19.634114583333343 47.208333333333336)"/><use xlink:href="#g" transform="matrix(1,0,0,1,-468,612) translate(128.68359375 47.208333333333336)"/><path d="M1000 606a6 6 0 0 1 6-6h308a6 6 0 0 1 6 6v88a6 6 0 0 1-6 6h-308a6 6 0 0 1-6-6z" stroke="#6db1ff" stroke-width="2" fill="#edf5ff"/><use xlink:href="#d" transform="matrix(1,0,0,1,1012,612) translate(34.30859375 47.208333333333336)"/><use xlink:href="#h" transform="matrix(1,0,0,1,1012,612) translate(143.50130208333334 47.208333333333336)"/><path d="M1920 586a6 6 0 0 1 6-6h308a6 6 0 0 1 6 6v88a6 6 0 0 1-6 6h-308a6 6 0 0 1-6-6z" stroke="#6db1ff" stroke-width="2" fill="#edf5ff"/><use xlink:href="#i" transform="matrix(1,0,0,1,1932,592) translate(106.09244791666666 47.208333333333336)"/><path d="M360 162.5V414a6 6 0 0 1-6 6h-2688a6 6 0 0 0-6 6v212.38" stroke="#fc9432" stroke-width="3" fill="none"/><path d="M361.48 162.54h-2.96V161h2.96z" stroke="#fc9432" stroke-width=".05" fill="#fc9432"/><path d="M-2340 654.15l-4.64-14.27h9.28z" stroke="#fc9432" stroke-width="3" fill="#fc9432"/><path d="M360 162.5V414a6 6 0 0 1-6 6h-668a6 6 0 0 0-6 6v152.38" stroke="#fc9432" stroke-width="3" fill="none"/><path d="M361.48 162.54h-2.96V161h2.96z" stroke="#fc9432" stroke-width=".05" fill="#fc9432"/><path d="M-320 594.15l-4.63-14.27h9.26z" stroke="#fc9432" stroke-width="3" fill="#fc9432"/><path d="M360 162.5V414a6 6 0 0 0 6 6h788a6 6 0 0 1 6 6v152.38" stroke="#fc9432" stroke-width="3" fill="none"/><path d="M361.48 162.54h-2.96V161h2.96z" stroke="#fc9432" stroke-width=".05" fill="#fc9432"/><path d="M1160 594.15l-4.63-14.27h9.27z" stroke="#fc9432" stroke-width="3" fill="#fc9432"/><path d="M360 162.5V414a6 6 0 0 0 6 6h1708a6 6 0 0 1 6 6v132.38" stroke="#fc9432" stroke-width="3" fill="none"/><path d="M361.48 162.54h-2.96V161h2.96z" stroke="#fc9432" stroke-width=".05" fill="#fc9432"/><path d="M2080 574.15l-4.64-14.27h9.28z" stroke="#fc9432" stroke-width="3" fill="#fc9432"/><path d="M-2860 946a6 6 0 0 1 6-6h308a6 6 0 0 1 6 6v88a6 6 0 0 1-6 6h-308a6 6 0 0 1-6-6z" stroke="#6db1ff" stroke-width="2" fill="#edf5ff"/><use xlink:href="#j" transform="matrix(1,0,0,1,-2848,952.0000000000001) translate(39.77083333333333 47.208333333333336)"/><use xlink:href="#k" transform="matrix(1,0,0,1,-2848,952.0000000000001) translate(135.76041666666669 47.208333333333336)"/><use xlink:href="#l" transform="matrix(1,0,0,1,-2848,952.0000000000001) translate(201.30729166666669 47.208333333333336)"/><path d="M-2180 946a6 6 0 0 1 6-6h308a6 6 0 0 1 6 6v88a6 6 0 0 1-6 6h-308a6 6 0 0 1-6-6z" stroke="#6db1ff" stroke-width="2" fill="#edf5ff"/><use xlink:href="#m" transform="matrix(1,0,0,1,-2168,952) translate(71.046875 47.208333333333336)"/><use xlink:href="#e" transform="matrix(1,0,0,1,-2168,952) translate(170.03125 47.208333333333336)"/><path d="M-2860 1346a6 6 0 0 1 6-6h308a6 6 0 0 1 6 6v88a6 6 0 0 1-6 6h-308a6 6 0 0 1-6-6z" stroke="#6db1ff" stroke-width="2" fill="#edf5ff"/><use xlink:href="#n" transform="matrix(1,0,0,1,-2848,1352) translate(26.248697916666657 47.208333333333336)"/><use xlink:href="#o" transform="matrix(1,0,0,1,-2848,1352) translate(121.71744791666666 47.208333333333336)"/><use xlink:href="#p" transform="matrix(1,0,0,1,-2848,1352) translate(184.13932291666666 47.208333333333336)"/><path d="M-2420 1346a6 6 0 0 1 6-6h308a6 6 0 0 1 6 6v88a6 6 0 0 1-6 6h-308a6 6 0 0 1-6-6z" stroke="#6db1ff" stroke-width="2" fill="#edf5ff"/><use xlink:href="#m" transform="matrix(1,0,0,1,-2408,1352) translate(18.091145833333343 47.208333333333336)"/><use xlink:href="#q" transform="matrix(1,0,0,1,-2408,1352) translate(117.07552083333333 47.208333333333336)"/><use xlink:href="#e" transform="matrix(1,0,0,1,-2408,1352) translate(222.98697916666666 47.208333333333336)"/><path d="M-1980 1346a6 6 0 0 1 6-6h308a6 6 0 0 1 6 6v88a6 6 0 0 1-6 6h-308a6 6 0 0 1-6-6z" stroke="#6db1ff" stroke-width="2" fill="#edf5ff"/><use xlink:href="#r" transform="matrix(1,0,0,1,-1968,1352) translate(61.19010416666666 47.208333333333336)"/><use xlink:href="#s" transform="matrix(1,0,0,1,-1968,1352) translate(119.74479166666666 47.208333333333336)"/><use xlink:href="#e" transform="matrix(1,0,0,1,-1968,1352) translate(179.88802083333331 47.208333333333336)"/><path d="M340 946a6 6 0 0 1 6-6h308a6 6 0 0 1 6 6v88a6 6 0 0 1-6 6H346a6 6 0 0 1-6-6z" stroke="#6db1ff" stroke-width="2" fill="#edf5ff"/><use xlink:href="#t" transform="matrix(1,0,0,1,352,952) translate(25.141927083333343 47.208333333333336)"/><use xlink:href="#h" transform="matrix(1,0,0,1,352,952) translate(152.66796875 47.208333333333336)"/><path d="M800 946a6 6 0 0 1 6-6h308a6 6 0 0 1 6 6v88a6 6 0 0 1-6 6H806a6 6 0 0 1-6-6z" stroke="#6db1ff" stroke-width="2" fill="#edf5ff"/><use xlink:href="#u" transform="matrix(1,0,0,1,812,952) translate(17.075520833333343 45.27777777777778)"/><use xlink:href="#v" transform="matrix(1,0,0,1,812,952) translate(102.83940972222223 45.27777777777778)"/><use xlink:href="#w" transform="matrix(1,0,0,1,812,952) translate(207.58116319444446 45.27777777777778)"/><path d="M1240 946a6 6 0 0 1 6-6h308a6 6 0 0 1 6 6v88a6 6 0 0 1-6 6h-308a6 6 0 0 1-6-6z" stroke="#6db1ff" stroke-width="2" fill="#edf5ff"/><use xlink:href="#x" transform="matrix(1,0,0,1,1252,952.0000000000001) translate(39.412760416666686 47.208333333333336)"/><use xlink:href="#y" transform="matrix(1,0,0,1,1252,952.0000000000001) translate(138.39713541666669 47.208333333333336)"/><path d="M-940 1346a6 6 0 0 1 6-6h308a6 6 0 0 1 6 6v88a6 6 0 0 1-6 6h-308a6 6 0 0 1-6-6z" stroke="#6db1ff" stroke-width="2" fill="#edf5ff"/><use xlink:href="#z" transform="matrix(1,0,0,1,-928,1352) translate(50.66927083333333 47.208333333333336)"/><use xlink:href="#A" transform="matrix(1,0,0,1,-928,1352) translate(142.03645833333331 47.208333333333336)"/><use xlink:href="#B" transform="matrix(1,0,0,1,-928,1352) translate(209.62760416666669 47.208333333333336)"/><path d="M-520 1346a6 6 0 0 1 6-6h308a6 6 0 0 1 6 6v88a6 6 0 0 1-6 6h-308a6 6 0 0 1-6-6z" stroke="#6db1ff" stroke-width="2" fill="#edf5ff"/><use xlink:href="#C" transform="matrix(1,0,0,1,-508,1352) translate(96.62630208333333 47.208333333333336)"/><use xlink:href="#D" transform="matrix(1,0,0,1,-508,1352) translate(162.55078125 47.208333333333336)"/><path d="M340 1346a6 6 0 0 1 6-6h308a6 6 0 0 1 6 6v88a6 6 0 0 1-6 6H346a6 6 0 0 1-6-6z" stroke="#6db1ff" stroke-width="2" fill="#edf5ff"/><use xlink:href="#E" transform="matrix(1,0,0,1,352,1352) translate(38.14756944444444 45.27777777777778)"/><use xlink:href="#F" transform="matrix(1,0,0,1,352,1352) translate(120.63454861111111 45.27777777777778)"/><use xlink:href="#G" transform="matrix(1,0,0,1,352,1352) translate(172.65277777777777 45.27777777777778)"/><path d="M800 1346a6 6 0 0 1 6-6h308a6 6 0 0 1 6 6v88a6 6 0 0 1-6 6H806a6 6 0 0 1-6-6z" stroke="#6db1ff" stroke-width="2" fill="#edf5ff"/><use xlink:href="#H" transform="matrix(1,0,0,1,812,1352) translate(46.58072916666667 47.208333333333336)"/><use xlink:href="#h" transform="matrix(1,0,0,1,812,1352) translate(131.22916666666669 47.208333333333336)"/><path d="M1240 1346a6 6 0 0 1 6-6h308a6 6 0 0 1 6 6v88a6 6 0 0 1-6 6h-308a6 6 0 0 1-6-6z" stroke="#6db1ff" stroke-width="2" fill="#edf5ff"/><use xlink:href="#m" transform="matrix(1,0,0,1,1252,1352) translate(23.02604166666667 47.208333333333336)"/><use xlink:href="#I" transform="matrix(1,0,0,1,1252,1352) translate(122.01041666666666 47.208333333333336)"/><use xlink:href="#J" transform="matrix(1,0,0,1,1252,1352) translate(200.94270833333331 47.208333333333336)"/><path d="M1680 1346a6 6 0 0 1 6-6h308a6 6 0 0 1 6 6v88a6 6 0 0 1-6 6h-308a6 6 0 0 1-6-6z" stroke="#6db1ff" stroke-width="2" fill="#edf5ff"/><use xlink:href="#K" transform="matrix(1,0,0,1,1692,1352) translate(22.842664930555557 45.27777777777778)"/><use xlink:href="#F" transform="matrix(1,0,0,1,1692,1352) translate(125.56618923611111 45.27777777777778)"/><use xlink:href="#L" transform="matrix(1,0,0,1,1692,1352) translate(177.58441840277777 45.27777777777778)"/><path d="M2180 1346a6 6 0 0 1 6-6h308a6 6 0 0 1 6 6v88a6 6 0 0 1-6 6h-308a6 6 0 0 1-6-6z" stroke="#6db1ff" stroke-width="2" fill="#edf5ff"/><use xlink:href="#x" transform="matrix(1,0,0,1,2192,1352) translate(27.895833333333343 47.208333333333336)"/><use xlink:href="#M" transform="matrix(1,0,0,1,2192,1352) translate(126.88020833333333 47.208333333333336)"/><use xlink:href="#N" transform="matrix(1,0,0,1,2192,1352) translate(189.30208333333334 47.208333333333336)"/><path d="M-1400 946a6 6 0 0 1 6-6h308a6 6 0 0 1 6 6v88a6 6 0 0 1-6 6h-308a6 6 0 0 1-6-6z" stroke="#6db1ff" stroke-width="2" fill="#edf5ff"/><use xlink:href="#r" transform="matrix(1,0,0,1,-1388,952) translate(1.18359375 47.208333333333336)"/><use xlink:href="#o" transform="matrix(1,0,0,1,-1388,952) translate(59.73828125 47.208333333333336)"/><use xlink:href="#O" transform="matrix(1,0,0,1,-1388,952) translate(122.16015625 47.208333333333336)"/><use xlink:href="#P" transform="matrix(1,0,0,1,-1388,952) translate(154.11328125 47.208333333333336)"/><path d="M-740 946a6 6 0 0 1 6-6h308a6 6 0 0 1 6 6v88a6 6 0 0 1-6 6h-308a6 6 0 0 1-6-6z" stroke="#6db1ff" stroke-width="2" fill="#edf5ff"/><use xlink:href="#Q" transform="matrix(1,0,0,1,-728,952) translate(67.60286458333334 47.208333333333336)"/><use xlink:href="#R" transform="matrix(1,0,0,1,-728,952) translate(190.87109375 47.208333333333336)"/><path d="M-160 946a6 6 0 0 1 6-6h308a6 6 0 0 1 6 6v88a6 6 0 0 1-6 6h-308a6 6 0 0 1-6-6z" stroke="#6db1ff" stroke-width="2" fill="#edf5ff"/><use xlink:href="#S" transform="matrix(1,0,0,1,-148,952) translate(54.86848958333334 47.208333333333336)"/><use xlink:href="#T" transform="matrix(1,0,0,1,-148,952) translate(179.72526041666666 47.208333333333336)"/><path d="M1680 946a6 6 0 0 1 6-6h308a6 6 0 0 1 6 6v88a6 6 0 0 1-6 6h-308a6 6 0 0 1-6-6z" stroke="#6db1ff" stroke-width="2" fill="#edf5ff"/><use xlink:href="#U" transform="matrix(1,0,0,1,1692,952) translate(39.19791666666666 47.208333333333336)"/><use xlink:href="#V" transform="matrix(1,0,0,1,1692,952) translate(142.11458333333334 47.208333333333336)"/><path d="M2180 946a6 6 0 0 1 6-6h308a6 6 0 0 1 6 6v88a6 6 0 0 1-6 6h-308a6 6 0 0 1-6-6z" stroke="#6db1ff" stroke-width="2" fill="#edf5ff"/><use xlink:href="#m" transform="matrix(1,0,0,1,2192,952) translate(59.10677083333334 47.208333333333336)"/><use xlink:href="#W" transform="matrix(1,0,0,1,2192,952) translate(158.09114583333331 47.208333333333336)"/><path d="M-2340 762.5V844a6 6 0 0 1-6 6h-348a6 6 0 0 0-6 6v62.38" stroke="#fc9432" stroke-width="3" fill="none"/><path d="M-2338.53 762.54h-2.94V761h2.94z" stroke="#fc9432" stroke-width=".05" fill="#fc9432"/><path d="M-2700 934.15l-4.64-14.27h9.28z" stroke="#fc9432" stroke-width="3" fill="#fc9432"/><path d="M-2340 762.5V844a6 6 0 0 0 6 6h308a6 6 0 0 1 6 6v62.38" stroke="#fc9432" stroke-width="3" fill="none"/><path d="M-2338.53 762.54h-2.94V761h2.94z" stroke="#fc9432" stroke-width=".05" fill="#fc9432"/><path d="M-2020 934.15l-4.63-14.27h9.27z" stroke="#fc9432" stroke-width="3" fill="#fc9432"/><path d="M-2700 1042.5v275.88" stroke="#fc9432" stroke-width="3" fill="none"/><path d="M-2698.53 1042.54h-2.94V1041h2.94z" stroke="#fc9432" stroke-width=".05" fill="#fc9432"/><path d="M-2700 1334.15l-4.64-14.27h9.28z" stroke="#fc9432" stroke-width="3" fill="#fc9432"/><path d="M-2020 1042.5V1184a6 6 0 0 1-6 6h-228a6 6 0 0 0-6 6v122.38" stroke="#fc9432" stroke-width="3" fill="none"/><path d="M-2018.53 1042.54h-2.94V1041h2.94z" stroke="#fc9432" stroke-width=".05" fill="#fc9432"/><path d="M-2260 1334.15l-4.64-14.27h9.28z" stroke="#fc9432" stroke-width="3" fill="#fc9432"/><path d="M-2020 1042.5V1184a6 6 0 0 0 6 6h188a6 6 0 0 1 6 6v122.38" stroke="#fc9432" stroke-width="3" fill="none"/><path d="M-2018.53 1042.54h-2.94V1041h2.94z" stroke="#fc9432" stroke-width=".05" fill="#fc9432"/><path d="M-1820 1334.15l-4.63-14.27h9.27z" stroke="#fc9432" stroke-width="3" fill="#fc9432"/><path d="M-580 1042.5V1184a6 6 0 0 1-6 6h-188a6 6 0 0 0-6 6v122.38" stroke="#fc9432" stroke-width="3" fill="none"/><path d="M-578.52 1042.54h-2.96V1041h2.96z" stroke="#fc9432" stroke-width=".05" fill="#fc9432"/><path d="M-780 1334.15l-4.63-14.27h9.26z" stroke="#fc9432" stroke-width="3" fill="#fc9432"/><path d="M-580 1042.5V1184a6 6 0 0 0 6 6h208a6 6 0 0 1 6 6v122.38" stroke="#fc9432" stroke-width="3" fill="none"/><path d="M-578.52 1042.54h-2.96V1041h2.96z" stroke="#fc9432" stroke-width=".05" fill="#fc9432"/><path d="M-360 1334.15l-4.63-14.27h9.26z" stroke="#fc9432" stroke-width="3" fill="#fc9432"/><path d="M500 1042.5v275.88" stroke="#fc9432" stroke-width="3" fill="none"/><path d="M501.48 1042.54h-2.96V1041h2.96z" stroke="#fc9432" stroke-width=".05" fill="#fc9432"/><path d="M500 1334.15l-4.63-14.27h9.26z" stroke="#fc9432" stroke-width="3" fill="#fc9432"/><path d="M-320 702.5V814a6 6 0 0 1-6 6h-908a6 6 0 0 0-6 6v92.38" stroke="#fc9432" stroke-width="3" fill="none"/><path d="M-318.52 702.54h-2.96V701h2.96z" stroke="#fc9432" stroke-width=".05" fill="#fc9432"/><path d="M-1240 934.15l-4.63-14.27h9.27z" stroke="#fc9432" stroke-width="3" fill="#fc9432"/><path d="M-320 702.5V814a6 6 0 0 1-6 6h-248a6 6 0 0 0-6 6v92.38" stroke="#fc9432" stroke-width="3" fill="none"/><path d="M-318.52 702.54h-2.96V701h2.96z" stroke="#fc9432" stroke-width=".05" fill="#fc9432"/><path d="M-580 934.15l-4.63-14.27h9.26z" stroke="#fc9432" stroke-width="3" fill="#fc9432"/><path d="M-320 702.5V814a6 6 0 0 0 6 6H-6a6 6 0 0 1 6 6v92.38" stroke="#fc9432" stroke-width="3" fill="none"/><path d="M-318.52 702.54h-2.96V701h2.96z" stroke="#fc9432" stroke-width=".05" fill="#fc9432"/><path d="M0 934.15l-4.63-14.27h9.27z" stroke="#fc9432" stroke-width="3" fill="#fc9432"/><path d="M-320 702.5V814a6 6 0 0 0 6 6h808a6 6 0 0 1 6 6v92.38" stroke="#fc9432" stroke-width="3" fill="none"/><path d="M-318.52 702.54h-2.96V701h2.96z" stroke="#fc9432" stroke-width=".05" fill="#fc9432"/><path d="M500 934.15l-4.63-14.27h9.26z" stroke="#fc9432" stroke-width="3" fill="#fc9432"/><path d="M1160 702.5V814a6 6 0 0 1-6 6H966a6 6 0 0 0-6 6v92.38" stroke="#fc9432" stroke-width="3" fill="none"/><path d="M1161.47 702.54h-2.94V701h2.94z" stroke="#fc9432" stroke-width=".05" fill="#fc9432"/><path d="M960 934.15l-4.63-14.27h9.26z" stroke="#fc9432" stroke-width="3" fill="#fc9432"/><path d="M1160 702.5V814a6 6 0 0 0 6 6h226a6 6 0 0 1 6 6v92.38" stroke="#fc9432" stroke-width="3" fill="none"/><path d="M1161.47 702.54h-2.94V701h2.94z" stroke="#fc9432" stroke-width=".05" fill="#fc9432"/><path d="M1398 934.15l-4.63-14.27h9.27z" stroke="#fc9432" stroke-width="3" fill="#fc9432"/><path d="M2080 682.5V804a6 6 0 0 1-6 6h-228a6 6 0 0 0-6 6v102.38" stroke="#fc9432" stroke-width="3" fill="none"/><path d="M2081.47 682.54h-2.94V681h2.94z" stroke="#fc9432" stroke-width=".05" fill="#fc9432"/><path d="M1840 934.15l-4.63-14.27h9.27z" stroke="#fc9432" stroke-width="3" fill="#fc9432"/><path d="M2080 682.5V804a6 6 0 0 0 6 6h246a6 6 0 0 1 6 6v102.38" stroke="#fc9432" stroke-width="3" fill="none"/><path d="M2081.47 682.54h-2.94V681h2.94z" stroke="#fc9432" stroke-width=".05" fill="#fc9432"/><path d="M2338 934.15l-4.64-14.27h9.28z" stroke="#fc9432" stroke-width="3" fill="#fc9432"/><path d="M960 1042.5v275.88" stroke="#fc9432" stroke-width="3" fill="none"/><path d="M961.48 1042.54h-2.96V1041h2.96z" stroke="#fc9432" stroke-width=".05" fill="#fc9432"/><path d="M960 1334.15l-4.63-14.27h9.26z" stroke="#fc9432" stroke-width="3" fill="#fc9432"/><path d="M1400 1042.5v275.88" stroke="#fc9432" stroke-width="3" fill="none"/><path d="M1401.47 1042.54h-2.94V1041h2.94z" stroke="#fc9432" stroke-width=".05" fill="#fc9432"/><path d="M1400 1334.15l-4.63-14.27h9.27z" stroke="#fc9432" stroke-width="3" fill="#fc9432"/><path d="M1840 1042.5v275.88" stroke="#fc9432" stroke-width="3" fill="none"/><path d="M1841.47 1042.54h-2.94V1041h2.94z" stroke="#fc9432" stroke-width=".05" fill="#fc9432"/><path d="M1840 1334.15l-4.63-14.27h9.27z" stroke="#fc9432" stroke-width="3" fill="#fc9432"/><path d="M2340 1042.5v275.88" stroke="#fc9432" stroke-width="3" fill="none"/><path d="M2341.47 1042.54h-2.94V1041h2.94z" stroke="#fc9432" stroke-width=".05" fill="#fc9432"/><path d="M2340 1334.15l-4.64-14.27h9.28z" stroke="#fc9432" stroke-width="3" fill="#fc9432"/><path d="M-2380.5 820H-2734a6 6 0 0 0-6 6v17.62M-2380.5 820h.5" stroke="#e81313" fill="none"/><path d="M-2740 858.38l-4.64-14.26h9.28z" stroke="#e81313" fill="#e81313"/><path d="M-2760 766a6 6 0 0 1 6-6h228a6 6 0 0 1 6 6v48a6 6 0 0 1-6 6h-228a6 6 0 0 1-6-6z" fill="none"/><g><use xlink:href="#X" transform="matrix(1,0,0,1,-2760,760) translate(57.18004394531249 36.089501953125)"/><use xlink:href="#Y" transform="matrix(1,0,0,1,-2760,760) translate(102.3731396484375 36.089501953125)"/></g><path d="M-2740 1100.5v123.12M-2740 1100.5v-.5" stroke="#e81313" fill="none"/><path d="M-2740 1238.38l-4.64-14.26h9.28z" stroke="#e81313" fill="#e81313"/><path d="M-2880 1166a6 6 0 0 1 6-6h123.64a6 6 0 0 1 6 6v18.26a6 6 0 0 1-6 6H-2874a6 6 0 0 1-6-6z" fill="#fff" fill-opacity="0"/><g><use xlink:href="#X" transform="matrix(1,0,0,1,-2875,1165) translate(0.1800439453124909 17.529375)"/><use xlink:href="#Y" transform="matrix(1,0,0,1,-2875,1165) translate(45.3731396484375 17.529375)"/></g><path d="M-2660 1239.5v-103.12M-2660 1239.5v.5" stroke="#e81313" fill="none"/><path d="M-2660 1121.62l4.64 14.26h-9.28z" stroke="#e81313" fill="#e81313"/><path d="M-2700 1166a6 6 0 0 1 6-6h228a6 6 0 0 1 6 6v48a6 6 0 0 1-6 6h-228a6 6 0 0 1-6-6z" fill="none"/><g><use xlink:href="#Z" transform="matrix(1,0,0,1,-2700,1160) translate(60.01302083333333 36.467013888888886)"/><use xlink:href="#aa" transform="matrix(1,0,0,1,-2700,1160) translate(108.0078125 36.467013888888886)"/></g><path d="M-2313.2 618.78V515.66M-2313.2 618.76v.52" stroke="#e81313" fill="none"/><path d="M-2313.2 500.9l4.64 14.26h-9.27z" stroke="#e81313" fill="#e81313"/><path d="M-2353.2 545.28a6 6 0 0 1 6-6h228a6 6 0 0 1 6 6v48a6 6 0 0 1-6 6h-228a6 6 0 0 1-6-6z" fill="none"/><g><use xlink:href="#Z" transform="matrix(1,0,0,1,-2353.196656512189,539.2776567168776) translate(60.01302083333333 36.467013888888886)"/><use xlink:href="#aa" transform="matrix(1,0,0,1,-2353.196656512189,539.2776567168776) translate(108.0078125 36.467013888888886)"/></g><path d="M-868.5 783.85H-983.6M-868.5 783.85h.5" stroke="#e81313" fill="none"/><path d="M-998.38 783.85l14.26-4.64v9.28z" stroke="#e81313" fill="#e81313"/><path d="M-1060 726a6 6 0 0 1 6-6h228a6 6 0 0 1 6 6v48a6 6 0 0 1-6 6h-228a6 6 0 0 1-6-6z" fill="none"/><g><use xlink:href="#Z" transform="matrix(1,0,0,1,-1060,720) translate(60.01302083333333 36.467013888888886)"/><use xlink:href="#aa" transform="matrix(1,0,0,1,-1060,720) translate(108.0078125 36.467013888888886)"/></g><defs><path d="M681 22C323 22 94-145 85-462h297c10 151 131 226 296 226 163 0 271-77 271-190 0-102-95-149-257-189l-164-41c-252-61-403-188-403-405 0-269 236-449 560-449 330 0 546 183 551 445H941c-11-119-106-188-259-188-156 0-244 72-244 172-3 156 226 185 373 221 250 61 445 186 445 436 0 271-213 446-575 446" id="ab"/><path d="M750 21c-371 0-615-218-615-544v-967h305v942c0 174 123 299 310 299s309-125 309-299v-942h306v967c0 326-247 544-615 544" id="ac"/><path d="M135 0v-1490h581c339 0 533 210 533 503 0 295-197 500-540 500H440V0H135zm305-733h220c186 0 274-104 274-254s-88-251-275-251H440v505" id="ad"/><path d="M135 0v-1490h997v253H440v360h640v249H440v375h694V0H135" id="ae"/><path d="M135 0v-1490h581c339 0 533 192 533 485 0 204-94 351-264 424L1302 0H964L680-532H440V0H135zm305-779h220c186 0 274-77 274-226 0-150-88-233-275-233H440v459" id="af"/><path d="M135 0v-1490h468l242 684c30 94 76 293 111 455 34-161 80-360 110-455l238-684h470V0h-307c0-447-3-765 11-1227-122 503-246 788-395 1227H826C676-435 552-717 427-1215c15 453 11 775 11 1215H135" id="ag"/><path d="M49 0l509-1490h400L1480 0h-339l-115-346H497L386 0H49zm524-585h374c-75-213-124-402-192-666-66 268-110 453-182 666" id="ah"/><path d="M135 0v-1490h305c1 251 0 501-5 746 157-254 405-512 598-746h373L849-845 1422 0h-361L638-644 440-426V0H135" id="ai"/><path d="M75-1237v-253h1217v253H837V0H531v-1237H75" id="aj"/><g id="a"><use transform="matrix(0.01953125,0,0,0.01953125,0,0)" xlink:href="#ab"/><use transform="matrix(0.01953125,0,0,0.01953125,26.19140625,0)" xlink:href="#ac"/><use transform="matrix(0.01953125,0,0,0.01953125,55.46875,0)" xlink:href="#ad"/><use transform="matrix(0.01953125,0,0,0.01953125,81.38671875,0)" xlink:href="#ae"/><use transform="matrix(0.01953125,0,0,0.01953125,105.68359375,0)" xlink:href="#af"/><use transform="matrix(0.01953125,0,0,0.01953125,131.953125,0)" xlink:href="#ag"/><use transform="matrix(0.01953125,0,0,0.01953125,169.21875,0)" xlink:href="#ah"/><use transform="matrix(0.01953125,0,0,0.01953125,199.08203125,0)" xlink:href="#af"/><use transform="matrix(0.01953125,0,0,0.01953125,225.3515625,0)" xlink:href="#ai"/><use transform="matrix(0.01953125,0,0,0.01953125,254.12109375,0)" xlink:href="#ae"/><use transform="matrix(0.01953125,0,0,0.01953125,278.41796875,0)" xlink:href="#aj"/></g><path d="M789 20C394 20 94-260 94-744c0-487 300-766 695-766s695 279 695 766c0 485-300 764-695 764zm0-271c231 0 385-174 385-493 0-321-154-495-385-495s-385 175-385 495c0 319 154 493 385 493" id="ak"/><path d="M440-1490V0H135v-1490h305" id="al"/><path d="M135 0v-1490h340l471 754c59 97 122 210 187 365-32-387-14-721-19-1119h312V0h-341C855-382 627-689 427-1113c32 420 16 695 20 1113H135" id="am"/><g id="b"><use transform="matrix(0.01953125,0,0,0.01953125,0,0)" xlink:href="#ah"/><use transform="matrix(0.01953125,0,0,0.01953125,29.08203125,0)" xlink:href="#ac"/><use transform="matrix(0.01953125,0,0,0.01953125,58.359375,0)" xlink:href="#aj"/><use transform="matrix(0.01953125,0,0,0.01953125,83.7890625,0)" xlink:href="#ak"/><use transform="matrix(0.01953125,0,0,0.01953125,114.609375,0)" xlink:href="#ag"/><use transform="matrix(0.01953125,0,0,0.01953125,151.875,0)" xlink:href="#ah"/><use transform="matrix(0.01953125,0,0,0.01953125,178.18359375,0)" xlink:href="#aj"/><use transform="matrix(0.01953125,0,0,0.01953125,204.8828125,0)" xlink:href="#al"/><use transform="matrix(0.01953125,0,0,0.01953125,216.11328125,0)" xlink:href="#ak"/><use transform="matrix(0.01953125,0,0,0.01953125,246.93359375,0)" xlink:href="#am"/></g><path d="M601 0v-560L49-1490h357l252 464c38 68 67 130 97 208 96-243 225-446 337-672h356L905-560V0H601" id="an"/><g id="c"><use transform="matrix(0.01953125,0,0,0.01953125,0,0)" xlink:href="#ab"/><use transform="matrix(0.01953125,0,0,0.01953125,26.19140625,0)" xlink:href="#an"/><use transform="matrix(0.01953125,0,0,0.01953125,55.4296875,0)" xlink:href="#ab"/><use transform="matrix(0.01953125,0,0,0.01953125,81.62109375,0)" xlink:href="#aj"/><use transform="matrix(0.01953125,0,0,0.01953125,108.3203125,0)" xlink:href="#ae"/><use transform="matrix(0.01953125,0,0,0.01953125,132.6171875,0)" xlink:href="#ag"/></g><path d="M180 0v-1490h270l367 940c28 72 75 218 110 339 35-117 81-264 110-339l362-940h271V0h-187c2-448-5-837 7-1287-157 497-311 829-483 1287H842C666-458 514-784 354-1284c12 438 5 843 7 1284H180" id="ao"/><path d="M471 26C259 26 90-98 90-318c0-256 228-303 435-329 202-27 287-16 287-108 0-139-79-219-234-219-161 0-248 86-283 164l-173-57c86-203 278-265 451-265 150 0 419 46 419 395V0H815v-152h-12C765-73 660 26 471 26zm31-159c199 0 310-134 310-271v-155c-30 35-226 55-295 64-131 17-246 59-246 186 0 116 97 176 231 176" id="ap"/><path d="M338-670V0H158v-1118h173l1 207c72-158 192-221 342-221 226 0 378 139 378 422V0H872v-695c0-172-96-275-252-275-161 0-282 109-282 300" id="aq"/><path d="M611 442c-248 0-391-105-460-228l146-94c47 65 117 165 314 165 178 0 307-82 307-266v-224h-17C863-141 792-18 576-18c-268 0-472-195-472-546 0-346 197-568 476-568 216 0 288 133 326 193h17v-179h175V29c0 289-215 413-487 413zm-5-620c203 0 314-146 314-390 0-237-108-403-314-403-213 0-319 180-319 403 0 230 109 390 319 390" id="ar"/><path d="M628 24c-324 0-524-230-524-574 0-343 198-582 503-582 237 0 487 146 487 559v75H286c9 234 145 362 343 362 132 0 231-58 273-172l174 48C1024-91 857 24 628 24zM287-650h624c-17-190-120-322-304-322-192 0-309 151-320 322" id="as"/><g id="d"><use transform="matrix(0.013020833333333334,0,0,0.013020833333333334,0,0)" xlink:href="#ao"/><use transform="matrix(0.013020833333333334,0,0,0.013020833333333334,24.088541666666668,0)" xlink:href="#ap"/><use transform="matrix(0.013020833333333334,0,0,0.013020833333333334,39.0625,0)" xlink:href="#aq"/><use transform="matrix(0.013020833333333334,0,0,0.013020833333333334,54.817708333333336,0)" xlink:href="#ap"/><use transform="matrix(0.013020833333333334,0,0,0.013020833333333334,69.79166666666667,0)" xlink:href="#ar"/><use transform="matrix(0.013020833333333334,0,0,0.013020833333333334,86.14583333333334,0)" xlink:href="#as"/></g><path d="M370-1490V0H180v-1490h190" id="at"/><path d="M598-1118v154H368v674c0 100 37 144 132 144 23 0 62-6 92-12L629-6c-37 13-88 20-134 20-193 0-307-107-307-290v-688H20v-154h168v-266h180v266h230" id="au"/><path d="M158 0v-1118h175l1 205c55-151 181-225 313-225 147 0 245 90 285 228 53-141 190-228 352-228 194 0 352 125 352 384V0h-181v-749c0-161-105-225-225-225-151 0-243 103-243 244V0H807v-767c0-124-93-207-219-207-131 0-250 92-250 270V0H158" id="av"/><g id="e"><use transform="matrix(0.013020833333333334,0,0,0.013020833333333334,0,0)" xlink:href="#at"/><use transform="matrix(0.013020833333333334,0,0,0.013020833333333334,7.552083333333334,0)" xlink:href="#au"/><use transform="matrix(0.013020833333333334,0,0,0.013020833333333334,16.015625,0)" xlink:href="#as"/><use transform="matrix(0.013020833333333334,0,0,0.013020833333333334,31.5625,0)" xlink:href="#av"/></g><path d="M180 0v-1490h510c348 0 508 209 508 474 0 266-160 477-507 477H370V0H180zm190-706h312c236 0 327-133 327-310 0-176-91-307-329-307H370v617" id="aw"/><path d="M158 0v-1118h174v172h12c41-113 157-188 290-188 26 0 70 2 91 3v181c-11-2-60-10-108-10-161 0-279 109-279 260V0H158" id="ax"/><path d="M613 24c-304 0-509-231-509-576 0-350 205-580 509-580 305 0 511 230 511 580 0 345-206 576-511 576zm0-161c226 0 329-195 329-415 0-222-103-419-329-419-223 0-326 196-326 419 0 220 103 415 326 415" id="ay"/><path d="M613 24c-304 0-509-231-509-576 0-350 205-580 509-580 216 0 392 114 453 309l-173 49c-33-115-133-197-280-197-223 0-326 196-326 419 0 220 103 415 326 415 150 0 252-85 285-206l172 49C1010-95 832 24 613 24" id="az"/><path d="M538 24C308 24 148-78 108-271l171-41c32 123 123 178 257 178 156 0 256-77 256-169 0-77-54-128-164-154l-186-44c-203-48-300-148-300-305 0-192 176-326 414-326 230 0 351 112 402 269l-163 42c-31-80-94-158-238-158-133 0-233 69-233 162 0 83 57 129 188 160l169 40c203 48 298 149 298 302 0 196-179 339-441 339" id="aA"/><g id="f"><use transform="matrix(0.013020833333333334,0,0,0.013020833333333334,0,0)" xlink:href="#aw"/><use transform="matrix(0.013020833333333334,0,0,0.013020833333333334,17.03125,0)" xlink:href="#ax"/><use transform="matrix(0.013020833333333334,0,0,0.013020833333333334,26.627604166666668,0)" xlink:href="#ay"/><use transform="matrix(0.013020833333333334,0,0,0.013020833333333334,42.6171875,0)" xlink:href="#az"/><use transform="matrix(0.013020833333333334,0,0,0.013020833333333334,57.8515625,0)" xlink:href="#as"/><use transform="matrix(0.013020833333333334,0,0,0.013020833333333334,73.3984375,0)" xlink:href="#aA"/><use transform="matrix(0.013020833333333334,0,0,0.013020833333333334,87.47395833333333,0)" xlink:href="#aA"/></g><path d="M98-1322v-168h1126v168H757V0H567v-1322H98" id="aB"/><path d="M158 0v-1118h180V0H158zm91-1301c-68 0-125-53-125-119s57-119 125-119c69 0 126 53 126 119s-57 119-126 119" id="aC"/><g id="g"><use transform="matrix(0.013020833333333334,0,0,0.013020833333333334,0,0)" xlink:href="#aB"/><use transform="matrix(0.013020833333333334,0,0,0.013020833333333334,15.703125,0)" xlink:href="#ax"/><use transform="matrix(0.013020833333333334,0,0,0.013020833333333334,25.7421875,0)" xlink:href="#ap"/><use transform="matrix(0.013020833333333334,0,0,0.013020833333333334,40.716145833333336,0)" xlink:href="#aq"/><use transform="matrix(0.013020833333333334,0,0,0.013020833333333334,56.47135416666667,0)" xlink:href="#aA"/><use transform="matrix(0.013020833333333334,0,0,0.013020833333333334,70.546875,0)" xlink:href="#ap"/><use transform="matrix(0.013020833333333334,0,0,0.013020833333333334,85.52083333333333,0)" xlink:href="#az"/><use transform="matrix(0.013020833333333334,0,0,0.013020833333333334,100.75520833333333,0)" xlink:href="#au"/><use transform="matrix(0.013020833333333334,0,0,0.013020833333333334,109.47916666666664,0)" xlink:href="#aC"/><use transform="matrix(0.013020833333333334,0,0,0.013020833333333334,115.93749999999999,0)" xlink:href="#ay"/><use transform="matrix(0.013020833333333334,0,0,0.013020833333333334,131.92708333333331,0)" xlink:href="#aq"/></g><path d="M481 0L54-1118h197c107 314 236 620 325 951 87-331 217-637 324-951h197L670 0H481" id="aD"/><path d="M140 405l46-156c120 36 205 19 263-150l32-93L54-1118h197c107 313 237 620 324 950 87-331 219-637 326-950h196L606 167c-68 178-176 259-334 259-64 0-113-12-132-21" id="aE"/><g id="h"><use transform="matrix(0.013020833333333334,0,0,0.013020833333333334,0,0)" xlink:href="#at"/><use transform="matrix(0.013020833333333334,0,0,0.013020833333333334,7.161458333333334,0)" xlink:href="#aq"/><use transform="matrix(0.013020833333333334,0,0,0.013020833333333334,22.526041666666668,0)" xlink:href="#aD"/><use transform="matrix(0.013020833333333334,0,0,0.013020833333333334,36.9921875,0)" xlink:href="#as"/><use transform="matrix(0.013020833333333334,0,0,0.013020833333333334,52.5390625,0)" xlink:href="#aq"/><use transform="matrix(0.013020833333333334,0,0,0.013020833333333334,68.29427083333333,0)" xlink:href="#au"/><use transform="matrix(0.013020833333333334,0,0,0.013020833333333334,76.75781249999999,0)" xlink:href="#ay"/><use transform="matrix(0.013020833333333334,0,0,0.013020833333333334,92.74739583333331,0)" xlink:href="#ax"/><use transform="matrix(0.013020833333333334,0,0,0.013020833333333334,103.20312499999999,0)" xlink:href="#aE"/></g><path d="M180 0v-1490h510c348 0 508 194 508 460 0 198-88 351-276 417L1256 0h-220L726-579c-117 2-238 0-356 1V0H180zm190-747h312c235 0 327-108 327-283 0-177-92-293-329-293H370v576" id="aF"/><path d="M158 418v-1536h174v179h20c37-59 106-193 324-193 279 0 474 222 474 576 0 356-194 580-473 580-213 0-288-135-325-197h-14v591H158zm492-555c209 0 317-186 317-421 0-232-105-413-317-413-206 0-314 166-314 413 0 249 111 421 314 421" id="aG"/><g id="i"><use transform="matrix(0.013020833333333334,0,0,0.013020833333333334,0,0)" xlink:href="#aF"/><use transform="matrix(0.013020833333333334,0,0,0.013020833333333334,16.770833333333336,0)" xlink:href="#as"/><use transform="matrix(0.013020833333333334,0,0,0.013020833333333334,32.317708333333336,0)" xlink:href="#aG"/><use transform="matrix(0.013020833333333334,0,0,0.013020833333333334,48.645833333333336,0)" xlink:href="#ay"/><use transform="matrix(0.013020833333333334,0,0,0.013020833333333334,64.63541666666667,0)" xlink:href="#ax"/><use transform="matrix(0.013020833333333334,0,0,0.013020833333333334,75.09114583333334,0)" xlink:href="#au"/></g><path d="M657 26c-323 0-524-166-541-416h195c15 169 171 246 346 246 202 0 356-106 356-265 5-203-294-238-475-293-239-73-380-191-380-389 0-252 224-419 512-419 294 0 499 171 508 396H992c-17-145-151-228-328-228-193 0-321 102-321 242 0 156 175 211 284 241l149 41c160 44 422 134 422 412 0 244-197 432-541 432" id="aH"/><path d="M338-670V0H158v-1490h180v566c73-149 190-208 336-208 226 0 379 139 379 422V0H872v-695c0-172-96-275-252-275-161 0-282 109-282 300" id="aI"/><g id="j"><use transform="matrix(0.013020833333333334,0,0,0.013020833333333334,0,0)" xlink:href="#aH"/><use transform="matrix(0.013020833333333334,0,0,0.013020833333333334,17.109375,0)" xlink:href="#as"/><use transform="matrix(0.013020833333333334,0,0,0.013020833333333334,32.91666666666667,0)" xlink:href="#ap"/><use transform="matrix(0.013020833333333334,0,0,0.013020833333333334,47.89062500000001,0)" xlink:href="#ax"/><use transform="matrix(0.013020833333333334,0,0,0.013020833333333334,57.48697916666667,0)" xlink:href="#az"/><use transform="matrix(0.013020833333333334,0,0,0.013020833333333334,72.72135416666667,0)" xlink:href="#aI"/></g><path d="M645 0H180v-1490h484c435 0 692 280 692 742 0 466-257 748-711 748zM370-168h263c363 0 539-218 539-580 0-358-176-574-521-574H370v1154" id="aJ"/><g id="k"><use transform="matrix(0.013020833333333334,0,0,0.013020833333333334,0,0)" xlink:href="#aJ"/><use transform="matrix(0.013020833333333334,0,0,0.013020833333333334,19.244791666666668,0)" xlink:href="#ap"/><use transform="matrix(0.013020833333333334,0,0,0.013020833333333334,34.21875,0)" xlink:href="#au"/><use transform="matrix(0.013020833333333334,0,0,0.013020833333333334,43.07291666666667,0)" xlink:href="#ap"/></g><g id="l"><use transform="matrix(0.013020833333333334,0,0,0.013020833333333334,0,0)" xlink:href="#at"/><use transform="matrix(0.013020833333333334,0,0,0.013020833333333334,7.552083333333334,0)" xlink:href="#au"/><use transform="matrix(0.013020833333333334,0,0,0.013020833333333334,16.015625,0)" xlink:href="#as"/><use transform="matrix(0.013020833333333334,0,0,0.013020833333333334,31.5625,0)" xlink:href="#av"/></g><path d="M763 24c-353 0-583-224-583-531v-983h190v968c0 214 149 370 393 370 243 0 391-156 391-370v-968h190v983c0 307-230 531-581 531" id="aK"/><path d="M577 24c-279 0-473-224-473-580 0-354 195-576 474-576 218 0 287 134 324 193h14v-551h180V0H922v-173h-20C865-111 790 24 577 24zm27-161c203 0 314-172 314-421 0-247-108-413-314-413-212 0-317 181-317 413 0 235 108 421 317 421" id="aL"/><g id="m"><use transform="matrix(0.013020833333333334,0,0,0.013020833333333334,0,0)" xlink:href="#aK"/><use transform="matrix(0.013020833333333334,0,0,0.013020833333333334,19.84375,0)" xlink:href="#aG"/><use transform="matrix(0.013020833333333334,0,0,0.013020833333333334,36.171875,0)" xlink:href="#aL"/><use transform="matrix(0.013020833333333334,0,0,0.013020833333333334,52.5,0)" xlink:href="#ap"/><use transform="matrix(0.013020833333333334,0,0,0.013020833333333334,67.47395833333333,0)" xlink:href="#au"/><use transform="matrix(0.013020833333333334,0,0,0.013020833333333334,75.93749999999999,0)" xlink:href="#as"/></g><g id="n"><use transform="matrix(0.013020833333333334,0,0,0.013020833333333334,0,0)" xlink:href="#aF"/><use transform="matrix(0.013020833333333334,0,0,0.013020833333333334,16.770833333333336,0)" xlink:href="#as"/><use transform="matrix(0.013020833333333334,0,0,0.013020833333333334,32.317708333333336,0)" xlink:href="#au"/><use transform="matrix(0.013020833333333334,0,0,0.013020833333333334,41.04166666666667,0)" xlink:href="#ax"/><use transform="matrix(0.013020833333333334,0,0,0.013020833333333334,51.497395833333336,0)" xlink:href="#aC"/><use transform="matrix(0.013020833333333334,0,0,0.013020833333333334,57.95572916666667,0)" xlink:href="#aD"/><use transform="matrix(0.013020833333333334,0,0,0.013020833333333334,72.421875,0)" xlink:href="#as"/></g><g id="o"><use transform="matrix(0.013020833333333334,0,0,0.013020833333333334,0,0)" xlink:href="#at"/><use transform="matrix(0.013020833333333334,0,0,0.013020833333333334,7.552083333333334,0)" xlink:href="#au"/><use transform="matrix(0.013020833333333334,0,0,0.013020833333333334,16.015625,0)" xlink:href="#as"/><use transform="matrix(0.013020833333333334,0,0,0.013020833333333334,31.5625,0)" xlink:href="#av"/></g><path d="M338-1490V0H158v-1490h180" id="aM"/><g id="p"><use transform="matrix(0.013020833333333334,0,0,0.013020833333333334,0,0)" xlink:href="#aJ"/><use transform="matrix(0.013020833333333334,0,0,0.013020833333333334,19.244791666666668,0)" xlink:href="#as"/><use transform="matrix(0.013020833333333334,0,0,0.013020833333333334,34.79166666666667,0)" xlink:href="#au"/><use transform="matrix(0.013020833333333334,0,0,0.013020833333333334,43.64583333333334,0)" xlink:href="#ap"/><use transform="matrix(0.013020833333333334,0,0,0.013020833333333334,58.61979166666668,0)" xlink:href="#aC"/><use transform="matrix(0.013020833333333334,0,0,0.013020833333333334,65.07812500000001,0)" xlink:href="#aM"/><use transform="matrix(0.013020833333333334,0,0,0.013020833333333334,71.53645833333334,0)" xlink:href="#aA"/></g><path d="M180 0v-1490h908v168H370v486h669v168H370v500h727V0H180" id="aN"/><path d="M65 0l393-574-370-544h210c88 136 192 297 267 435 67-142 176-302 264-435h206L661-564 1053 0H844c-94-144-206-310-287-458C484-308 366-142 273 0H65" id="aO"/><g id="q"><use transform="matrix(0.013020833333333334,0,0,0.013020833333333334,0,0)" xlink:href="#aN"/><use transform="matrix(0.013020833333333334,0,0,0.013020833333333334,16.028645833333336,0)" xlink:href="#aO"/><use transform="matrix(0.013020833333333334,0,0,0.013020833333333334,30.5859375,0)" xlink:href="#aC"/><use transform="matrix(0.013020833333333334,0,0,0.013020833333333334,37.044270833333336,0)" xlink:href="#aA"/><use transform="matrix(0.013020833333333334,0,0,0.013020833333333334,51.11979166666667,0)" xlink:href="#au"/><use transform="matrix(0.013020833333333334,0,0,0.013020833333333334,59.84375,0)" xlink:href="#aC"/><use transform="matrix(0.013020833333333334,0,0,0.013020833333333334,66.30208333333334,0)" xlink:href="#aq"/><use transform="matrix(0.013020833333333334,0,0,0.013020833333333334,82.05729166666667,0)" xlink:href="#ar"/></g><path d="M52 0l541-1490h220L1361 0h-200l-149-416H398L254 0H52zm404-582h497c-103-290-145-390-251-756-108 377-145 460-246 756" id="aP"/><g id="r"><use transform="matrix(0.013020833333333334,0,0,0.013020833333333334,0,0)" xlink:href="#aP"/><use transform="matrix(0.013020833333333334,0,0,0.013020833333333334,18.3984375,0)" xlink:href="#aL"/><use transform="matrix(0.013020833333333334,0,0,0.013020833333333334,34.7265625,0)" xlink:href="#aL"/></g><path d="M409 0L70-1118h191c89 329 165 560 243 925 75-353 154-601 240-925h192c85 325 161 564 235 922 77-354 157-598 244-922h191L1267 0h-179c-86-307-176-590-250-913C763-588 675-308 588 0H409" id="aQ"/><g id="s"><use transform="matrix(0.013020833333333334,0,0,0.013020833333333334,0,0)" xlink:href="#aq"/><use transform="matrix(0.013020833333333334,0,0,0.013020833333333334,15.755208333333334,0)" xlink:href="#as"/><use transform="matrix(0.013020833333333334,0,0,0.013020833333333334,30.8203125,0)" xlink:href="#aQ"/></g><g id="t"><use transform="matrix(0.013020833333333334,0,0,0.013020833333333334,0,0)" xlink:href="#aJ"/><use transform="matrix(0.013020833333333334,0,0,0.013020833333333334,19.244791666666668,0)" xlink:href="#as"/><use transform="matrix(0.013020833333333334,0,0,0.013020833333333334,34.79166666666667,0)" xlink:href="#az"/><use transform="matrix(0.013020833333333334,0,0,0.013020833333333334,50.02604166666667,0)" xlink:href="#ax"/><use transform="matrix(0.013020833333333334,0,0,0.013020833333333334,59.622395833333336,0)" xlink:href="#as"/><use transform="matrix(0.013020833333333334,0,0,0.013020833333333334,75.4296875,0)" xlink:href="#ap"/><use transform="matrix(0.013020833333333334,0,0,0.013020833333333334,90.40364583333333,0)" xlink:href="#aA"/><use transform="matrix(0.013020833333333334,0,0,0.013020833333333334,104.47916666666666,0)" xlink:href="#as"/></g><g id="u"><use transform="matrix(0.010850694444444444,0,0,0.010850694444444444,0,0)" xlink:href="#aw"/><use transform="matrix(0.010850694444444444,0,0,0.010850694444444444,14.192708333333332,0)" xlink:href="#ax"/><use transform="matrix(0.010850694444444444,0,0,0.010850694444444444,22.189670138888886,0)" xlink:href="#ay"/><use transform="matrix(0.010850694444444444,0,0,0.010850694444444444,35.080295138888886,0)" xlink:href="#aD"/><use transform="matrix(0.010850694444444444,0,0,0.010850694444444444,47.56944444444444,0)" xlink:href="#aC"/><use transform="matrix(0.010850694444444444,0,0,0.010850694444444444,52.951388888888886,0)" xlink:href="#aL"/><use transform="matrix(0.010850694444444444,0,0,0.010850694444444444,66.55815972222221,0)" xlink:href="#as"/></g><g id="v"><use transform="matrix(0.010850694444444444,0,0,0.010850694444444444,0,0)" xlink:href="#at"/><use transform="matrix(0.010850694444444444,0,0,0.010850694444444444,5.967881944444445,0)" xlink:href="#aq"/><use transform="matrix(0.010850694444444444,0,0,0.010850694444444444,18.77170138888889,0)" xlink:href="#aD"/><use transform="matrix(0.010850694444444444,0,0,0.010850694444444444,30.826822916666664,0)" xlink:href="#as"/><use transform="matrix(0.010850694444444444,0,0,0.010850694444444444,43.78255208333333,0)" xlink:href="#aq"/><use transform="matrix(0.010850694444444444,0,0,0.010850694444444444,56.91189236111111,0)" xlink:href="#au"/><use transform="matrix(0.010850694444444444,0,0,0.010850694444444444,63.96484375,0)" xlink:href="#ay"/><use transform="matrix(0.010850694444444444,0,0,0.010850694444444444,77.28949652777777,0)" xlink:href="#ax"/><use transform="matrix(0.010850694444444444,0,0,0.010850694444444444,86.00260416666667,0)" xlink:href="#aE"/></g><g id="w"><use transform="matrix(0.010850694444444444,0,0,0.010850694444444444,0,0)" xlink:href="#aJ"/><use transform="matrix(0.010850694444444444,0,0,0.010850694444444444,16.03732638888889,0)" xlink:href="#as"/><use transform="matrix(0.010850694444444444,0,0,0.010850694444444444,28.99305555555556,0)" xlink:href="#au"/><use transform="matrix(0.010850694444444444,0,0,0.010850694444444444,36.37152777777778,0)" xlink:href="#ap"/><use transform="matrix(0.010850694444444444,0,0,0.010850694444444444,48.849826388888886,0)" xlink:href="#aC"/><use transform="matrix(0.010850694444444444,0,0,0.010850694444444444,54.23177083333333,0)" xlink:href="#aM"/><use transform="matrix(0.010850694444444444,0,0,0.010850694444444444,59.61371527777778,0)" xlink:href="#aA"/></g><g id="x"><use transform="matrix(0.013020833333333334,0,0,0.013020833333333334,0,0)" xlink:href="#aK"/><use transform="matrix(0.013020833333333334,0,0,0.013020833333333334,19.84375,0)" xlink:href="#aG"/><use transform="matrix(0.013020833333333334,0,0,0.013020833333333334,36.171875,0)" xlink:href="#aL"/><use transform="matrix(0.013020833333333334,0,0,0.013020833333333334,52.5,0)" xlink:href="#ap"/><use transform="matrix(0.013020833333333334,0,0,0.013020833333333334,67.47395833333333,0)" xlink:href="#au"/><use transform="matrix(0.013020833333333334,0,0,0.013020833333333334,75.93749999999999,0)" xlink:href="#as"/></g><g id="y"><use transform="matrix(0.013020833333333334,0,0,0.013020833333333334,0,0)" xlink:href="#at"/><use transform="matrix(0.013020833333333334,0,0,0.013020833333333334,7.161458333333334,0)" xlink:href="#aq"/><use transform="matrix(0.013020833333333334,0,0,0.013020833333333334,22.526041666666668,0)" xlink:href="#aD"/><use transform="matrix(0.013020833333333334,0,0,0.013020833333333334,36.9921875,0)" xlink:href="#as"/><use transform="matrix(0.013020833333333334,0,0,0.013020833333333334,52.5390625,0)" xlink:href="#aq"/><use transform="matrix(0.013020833333333334,0,0,0.013020833333333334,68.29427083333333,0)" xlink:href="#au"/><use transform="matrix(0.013020833333333334,0,0,0.013020833333333334,76.75781249999999,0)" xlink:href="#ay"/><use transform="matrix(0.013020833333333334,0,0,0.013020833333333334,92.74739583333331,0)" xlink:href="#ax"/><use transform="matrix(0.013020833333333334,0,0,0.013020833333333334,103.20312499999999,0)" xlink:href="#aE"/></g><path d="M783 20c-382 0-661-292-661-764 0-473 279-766 661-766 302 0 548 182 601 489h-190c-42-204-217-313-411-313-268 0-476 208-476 590 0 381 209 588 476 588 195 0 369-110 411-313h190c-52 303-296 489-601 489" id="aR"/><g id="z"><use transform="matrix(0.013020833333333334,0,0,0.013020833333333334,0,0)" xlink:href="#aR"/><use transform="matrix(0.013020833333333334,0,0,0.013020833333333334,19.479166666666668,0)" xlink:href="#ax"/><use transform="matrix(0.013020833333333334,0,0,0.013020833333333334,29.075520833333336,0)" xlink:href="#as"/><use transform="matrix(0.013020833333333334,0,0,0.013020833333333334,44.8828125,0)" xlink:href="#ap"/><use transform="matrix(0.013020833333333334,0,0,0.013020833333333334,59.856770833333336,0)" xlink:href="#au"/><use transform="matrix(0.013020833333333334,0,0,0.013020833333333334,68.3203125,0)" xlink:href="#as"/></g><path d="M180 0v-1490h901v168H370v510h643v168H370V0H180" id="aS"/><g id="A"><use transform="matrix(0.013020833333333334,0,0,0.013020833333333334,0,0)" xlink:href="#aS"/><use transform="matrix(0.013020833333333334,0,0,0.013020833333333334,15.7421875,0)" xlink:href="#at"/><use transform="matrix(0.013020833333333334,0,0,0.013020833333333334,22.903645833333336,0)" xlink:href="#aq"/><use transform="matrix(0.013020833333333334,0,0,0.013020833333333334,38.65885416666667,0)" xlink:href="#ap"/><use transform="matrix(0.013020833333333334,0,0,0.013020833333333334,53.6328125,0)" xlink:href="#aM"/></g><path d="M677 24c-213 0-288-135-325-197h-20V0H158v-1490h180v551h14c37-59 106-193 324-193 279 0 474 222 474 576 0 356-194 580-473 580zm-27-161c209 0 317-186 317-421 0-232-105-413-317-413-206 0-314 166-314 413 0 249 111 421 314 421" id="aT"/><g id="B"><use transform="matrix(0.013020833333333334,0,0,0.013020833333333334,0,0)" xlink:href="#aT"/><use transform="matrix(0.013020833333333334,0,0,0.013020833333333334,16.328125,0)" xlink:href="#aC"/><use transform="matrix(0.013020833333333334,0,0,0.013020833333333334,22.786458333333336,0)" xlink:href="#aM"/><use transform="matrix(0.013020833333333334,0,0,0.013020833333333334,29.244791666666675,0)" xlink:href="#aM"/></g><g id="C"><use transform="matrix(0.013020833333333334,0,0,0.013020833333333334,0,0)" xlink:href="#aw"/><use transform="matrix(0.013020833333333334,0,0,0.013020833333333334,17.03125,0)" xlink:href="#ax"/><use transform="matrix(0.013020833333333334,0,0,0.013020833333333334,27.486979166666668,0)" xlink:href="#aC"/><use transform="matrix(0.013020833333333334,0,0,0.013020833333333334,33.9453125,0)" xlink:href="#aq"/><use transform="matrix(0.013020833333333334,0,0,0.013020833333333334,49.700520833333336,0)" xlink:href="#au"/></g><path d="M180 0v-1490h528c311 0 458 177 458 395 0 191-114 278-244 313v14c139 9 302 137 302 371 0 225-148 397-499 397H180zm190-168h350c232 0 321-102 321-231 0-149-120-277-311-277H370v508zm0-668h328c160 0 286-101 286-255 0-129-87-231-280-231H370v486" id="aU"/><g id="D"><use transform="matrix(0.013020833333333334,0,0,0.013020833333333334,0,0)" xlink:href="#aU"/><use transform="matrix(0.013020833333333334,0,0,0.013020833333333334,17.447916666666668,0)" xlink:href="#aC"/><use transform="matrix(0.013020833333333334,0,0,0.013020833333333334,23.90625,0)" xlink:href="#aM"/><use transform="matrix(0.013020833333333334,0,0,0.013020833333333334,30.364583333333336,0)" xlink:href="#aM"/></g><g id="E"><use transform="matrix(0.010850694444444444,0,0,0.010850694444444444,0,0)" xlink:href="#aK"/><use transform="matrix(0.010850694444444444,0,0,0.010850694444444444,16.536458333333332,0)" xlink:href="#aG"/><use transform="matrix(0.010850694444444444,0,0,0.010850694444444444,30.143229166666664,0)" xlink:href="#aL"/><use transform="matrix(0.010850694444444444,0,0,0.010850694444444444,43.75,0)" xlink:href="#ap"/><use transform="matrix(0.010850694444444444,0,0,0.010850694444444444,56.22829861111112,0)" xlink:href="#au"/><use transform="matrix(0.010850694444444444,0,0,0.010850694444444444,63.28125000000001,0)" xlink:href="#as"/></g><g id="F"><use transform="matrix(0.010850694444444444,0,0,0.010850694444444444,0,0)" xlink:href="#at"/><use transform="matrix(0.010850694444444444,0,0,0.010850694444444444,6.293402777777778,0)" xlink:href="#au"/><use transform="matrix(0.010850694444444444,0,0,0.010850694444444444,13.346354166666666,0)" xlink:href="#as"/><use transform="matrix(0.010850694444444444,0,0,0.010850694444444444,26.302083333333332,0)" xlink:href="#av"/></g><path d="M1096 418H916v-591h-14C865-111 790 24 577 24c-279 0-473-224-473-580 0-354 195-576 474-576 218 0 287 134 324 193h20v-179h174V418zM604-137c203 0 314-172 314-421 0-247-108-413-314-413-212 0-317 181-317 413 0 235 108 421 317 421" id="aV"/><path d="M537 14c-226 0-379-139-379-422v-710h180v695c0 172 97 275 253 275 160 0 281-109 281-300v-670h181V0H879v-209C806-46 684 14 537 14" id="aW"/><g id="G"><use transform="matrix(0.010850694444444444,0,0,0.010850694444444444,0,0)" xlink:href="#aV"/><use transform="matrix(0.010850694444444444,0,0,0.010850694444444444,13.606770833333332,0)" xlink:href="#aW"/><use transform="matrix(0.010850694444444444,0,0,0.010850694444444444,26.746961805555554,0)" xlink:href="#ap"/><use transform="matrix(0.010850694444444444,0,0,0.010850694444444444,39.225260416666664,0)" xlink:href="#aq"/><use transform="matrix(0.010850694444444444,0,0,0.010850694444444444,52.35460069444444,0)" xlink:href="#au"/><use transform="matrix(0.010850694444444444,0,0,0.010850694444444444,59.62456597222222,0)" xlink:href="#aC"/><use transform="matrix(0.010850694444444444,0,0,0.010850694444444444,65.00651041666667,0)" xlink:href="#au"/><use transform="matrix(0.010850694444444444,0,0,0.010850694444444444,72.71050347222221,0)" xlink:href="#aE"/></g><path d="M784 20c-382 0-662-292-662-764 0-473 280-766 662-766s660 293 660 766c0 282-99 499-260 629l192 255h-198L1049-33C969 2 880 20 784 20zm-62-486h198l156 205c112-98 183-261 183-483 0-383-209-590-475-590-268 0-477 208-477 590 0 380 209 588 477 588 54 0 106-9 154-25" id="aX"/><g id="H"><use transform="matrix(0.013020833333333334,0,0,0.013020833333333334,0,0)" xlink:href="#aX"/><use transform="matrix(0.013020833333333334,0,0,0.013020833333333334,20.390625,0)" xlink:href="#aW"/><use transform="matrix(0.013020833333333334,0,0,0.013020833333333334,36.15885416666667,0)" xlink:href="#as"/><use transform="matrix(0.013020833333333334,0,0,0.013020833333333334,51.70572916666667,0)" xlink:href="#ax"/><use transform="matrix(0.013020833333333334,0,0,0.013020833333333334,62.161458333333336,0)" xlink:href="#aE"/></g><path d="M158 0v-1490h180v865h22l478-493h223L593-638 1096 0H865L456-523 338-412V0H158" id="aY"/><g id="I"><use transform="matrix(0.013020833333333334,0,0,0.013020833333333334,0,0)" xlink:href="#aH"/><use transform="matrix(0.013020833333333334,0,0,0.013020833333333334,17.109375,0)" xlink:href="#au"/><use transform="matrix(0.013020833333333334,0,0,0.013020833333333334,25.572916666666664,0)" xlink:href="#ay"/><use transform="matrix(0.013020833333333334,0,0,0.013020833333333334,41.5625,0)" xlink:href="#az"/><use transform="matrix(0.013020833333333334,0,0,0.013020833333333334,56.796875,0)" xlink:href="#aY"/></g><g id="J"><use transform="matrix(0.013020833333333334,0,0,0.013020833333333334,0,0)" xlink:href="#aM"/><use transform="matrix(0.013020833333333334,0,0,0.013020833333333334,6.458333333333334,0)" xlink:href="#as"/><use transform="matrix(0.013020833333333334,0,0,0.013020833333333334,21.484375,0)" xlink:href="#aD"/><use transform="matrix(0.013020833333333334,0,0,0.013020833333333334,35.950520833333336,0)" xlink:href="#as"/><use transform="matrix(0.013020833333333334,0,0,0.013020833333333334,51.497395833333336,0)" xlink:href="#aM"/><use transform="matrix(0.013020833333333334,0,0,0.013020833333333334,57.95572916666667,0)" xlink:href="#aA"/></g><path d="M789 20c-398 0-667-293-667-764 0-473 273-766 655-766 315 0 558 198 612 487h-196c-61-191-204-311-415-311-262 0-471 207-471 590 0 380 208 588 482 588 249 0 420-165 425-427H828v-166h572v163c0 370-256 606-611 606" id="aZ"/><g id="K"><use transform="matrix(0.010850694444444444,0,0,0.010850694444444444,0,0)" xlink:href="#aZ"/><use transform="matrix(0.010850694444444444,0,0,0.010850694444444444,16.57986111111111,0)" xlink:href="#as"/><use transform="matrix(0.010850694444444444,0,0,0.010850694444444444,29.535590277777775,0)" xlink:href="#aq"/><use transform="matrix(0.010850694444444444,0,0,0.010850694444444444,42.66493055555556,0)" xlink:href="#as"/><use transform="matrix(0.010850694444444444,0,0,0.010850694444444444,55.62065972222222,0)" xlink:href="#ax"/><use transform="matrix(0.010850694444444444,0,0,0.010850694444444444,63.986545138888886,0)" xlink:href="#ap"/><use transform="matrix(0.010850694444444444,0,0,0.010850694444444444,76.46484375,0)" xlink:href="#au"/><use transform="matrix(0.010850694444444444,0,0,0.010850694444444444,83.51779513888889,0)" xlink:href="#as"/></g><g id="L"><use transform="matrix(0.010850694444444444,0,0,0.010850694444444444,0,0)" xlink:href="#aH"/><use transform="matrix(0.010850694444444444,0,0,0.010850694444444444,14.2578125,0)" xlink:href="#au"/><use transform="matrix(0.010850694444444444,0,0,0.010850694444444444,21.63628472222222,0)" xlink:href="#ap"/><use transform="matrix(0.010850694444444444,0,0,0.010850694444444444,34.11458333333333,0)" xlink:href="#au"/><use transform="matrix(0.010850694444444444,0,0,0.010850694444444444,41.38454861111111,0)" xlink:href="#aC"/><use transform="matrix(0.010850694444444444,0,0,0.010850694444444444,46.76649305555556,0)" xlink:href="#aA"/><use transform="matrix(0.010850694444444444,0,0,0.010850694444444444,58.496093749999986,0)" xlink:href="#au"/><use transform="matrix(0.010850694444444444,0,0,0.010850694444444444,65.76605902777777,0)" xlink:href="#aC"/><use transform="matrix(0.010850694444444444,0,0,0.010850694444444444,71.14800347222221,0)" xlink:href="#az"/><use transform="matrix(0.010850694444444444,0,0,0.010850694444444444,83.84331597222221,0)" xlink:href="#aA"/></g><g id="M"><use transform="matrix(0.013020833333333334,0,0,0.013020833333333334,0,0)" xlink:href="#at"/><use transform="matrix(0.013020833333333334,0,0,0.013020833333333334,7.552083333333334,0)" xlink:href="#au"/><use transform="matrix(0.013020833333333334,0,0,0.013020833333333334,16.015625,0)" xlink:href="#as"/><use transform="matrix(0.013020833333333334,0,0,0.013020833333333334,31.5625,0)" xlink:href="#av"/></g><g id="N"><use transform="matrix(0.013020833333333334,0,0,0.013020833333333334,0,0)" xlink:href="#aw"/><use transform="matrix(0.013020833333333334,0,0,0.013020833333333334,17.03125,0)" xlink:href="#ax"/><use transform="matrix(0.013020833333333334,0,0,0.013020833333333334,27.486979166666668,0)" xlink:href="#aC"/><use transform="matrix(0.013020833333333334,0,0,0.013020833333333334,33.9453125,0)" xlink:href="#az"/><use transform="matrix(0.013020833333333334,0,0,0.013020833333333334,49.1796875,0)" xlink:href="#as"/><use transform="matrix(0.013020833333333334,0,0,0.013020833333333334,64.7265625,0)" xlink:href="#aA"/></g><g id="O"><use transform="matrix(0.013020833333333334,0,0,0.013020833333333334,0,0)" xlink:href="#au"/><use transform="matrix(0.013020833333333334,0,0,0.013020833333333334,8.463541666666668,0)" xlink:href="#ay"/></g><g id="P"><use transform="matrix(0.013020833333333334,0,0,0.013020833333333334,0,0)" xlink:href="#au"/><use transform="matrix(0.013020833333333334,0,0,0.013020833333333334,8.723958333333334,0)" xlink:href="#ax"/><use transform="matrix(0.013020833333333334,0,0,0.013020833333333334,18.763020833333336,0)" xlink:href="#ap"/><use transform="matrix(0.013020833333333334,0,0,0.013020833333333334,33.73697916666667,0)" xlink:href="#aq"/><use transform="matrix(0.013020833333333334,0,0,0.013020833333333334,49.49218750000001,0)" xlink:href="#aA"/><use transform="matrix(0.013020833333333334,0,0,0.013020833333333334,63.56770833333335,0)" xlink:href="#ap"/><use transform="matrix(0.013020833333333334,0,0,0.013020833333333334,78.54166666666667,0)" xlink:href="#az"/><use transform="matrix(0.013020833333333334,0,0,0.013020833333333334,93.77604166666667,0)" xlink:href="#au"/><use transform="matrix(0.013020833333333334,0,0,0.013020833333333334,102.5,0)" xlink:href="#aC"/><use transform="matrix(0.013020833333333334,0,0,0.013020833333333334,108.95833333333334,0)" xlink:href="#ay"/><use transform="matrix(0.013020833333333334,0,0,0.013020833333333334,124.94791666666664,0)" xlink:href="#aq"/></g><g id="Q"><use transform="matrix(0.013020833333333334,0,0,0.013020833333333334,0,0)" xlink:href="#aZ"/><use transform="matrix(0.013020833333333334,0,0,0.013020833333333334,19.895833333333336,0)" xlink:href="#as"/><use transform="matrix(0.013020833333333334,0,0,0.013020833333333334,35.442708333333336,0)" xlink:href="#aq"/><use transform="matrix(0.013020833333333334,0,0,0.013020833333333334,51.19791666666667,0)" xlink:href="#as"/><use transform="matrix(0.013020833333333334,0,0,0.013020833333333334,66.74479166666667,0)" xlink:href="#ax"/><use transform="matrix(0.013020833333333334,0,0,0.013020833333333334,76.78385416666667,0)" xlink:href="#ap"/><use transform="matrix(0.013020833333333334,0,0,0.013020833333333334,91.7578125,0)" xlink:href="#au"/><use transform="matrix(0.013020833333333334,0,0,0.013020833333333334,100.22135416666666,0)" xlink:href="#as"/></g><g id="R"><use transform="matrix(0.013020833333333334,0,0,0.013020833333333334,0,0)" xlink:href="#aU"/><use transform="matrix(0.013020833333333334,0,0,0.013020833333333334,17.447916666666668,0)" xlink:href="#at"/><use transform="matrix(0.013020833333333334,0,0,0.013020833333333334,24.609375,0)" xlink:href="#aM"/><use transform="matrix(0.013020833333333334,0,0,0.013020833333333334,31.067708333333336,0)" xlink:href="#aM"/></g><g id="S"><use transform="matrix(0.013020833333333334,0,0,0.013020833333333334,0,0)" xlink:href="#aR"/><use transform="matrix(0.013020833333333334,0,0,0.013020833333333334,19.479166666666668,0)" xlink:href="#ap"/><use transform="matrix(0.013020833333333334,0,0,0.013020833333333334,34.453125,0)" xlink:href="#aM"/><use transform="matrix(0.013020833333333334,0,0,0.013020833333333334,40.911458333333336,0)" xlink:href="#az"/><use transform="matrix(0.013020833333333334,0,0,0.013020833333333334,56.145833333333336,0)" xlink:href="#aW"/><use transform="matrix(0.013020833333333334,0,0,0.013020833333333334,71.9140625,0)" xlink:href="#aM"/><use transform="matrix(0.013020833333333334,0,0,0.013020833333333334,78.37239583333333,0)" xlink:href="#ap"/><use transform="matrix(0.013020833333333334,0,0,0.013020833333333334,93.34635416666666,0)" xlink:href="#au"/><use transform="matrix(0.013020833333333334,0,0,0.013020833333333334,101.80989583333331,0)" xlink:href="#as"/></g><g id="T"><use transform="matrix(0.013020833333333334,0,0,0.013020833333333334,0,0)" xlink:href="#aB"/><use transform="matrix(0.013020833333333334,0,0,0.013020833333333334,15.130208333333334,0)" xlink:href="#ay"/><use transform="matrix(0.013020833333333334,0,0,0.013020833333333334,31.119791666666668,0)" xlink:href="#au"/><use transform="matrix(0.013020833333333334,0,0,0.013020833333333334,39.973958333333336,0)" xlink:href="#ap"/><use transform="matrix(0.013020833333333334,0,0,0.013020833333333334,54.94791666666667,0)" xlink:href="#aM"/></g><g id="U"><use transform="matrix(0.013020833333333334,0,0,0.013020833333333334,0,0)" xlink:href="#aw"/><use transform="matrix(0.013020833333333334,0,0,0.013020833333333334,17.03125,0)" xlink:href="#ax"/><use transform="matrix(0.013020833333333334,0,0,0.013020833333333334,26.627604166666668,0)" xlink:href="#ay"/><use transform="matrix(0.013020833333333334,0,0,0.013020833333333334,42.09635416666667,0)" xlink:href="#aD"/><use transform="matrix(0.013020833333333334,0,0,0.013020833333333334,57.08333333333335,0)" xlink:href="#aC"/><use transform="matrix(0.013020833333333334,0,0,0.013020833333333334,63.54166666666668,0)" xlink:href="#aL"/><use transform="matrix(0.013020833333333334,0,0,0.013020833333333334,79.86979166666669,0)" xlink:href="#as"/></g><g id="V"><use transform="matrix(0.013020833333333334,0,0,0.013020833333333334,0,0)" xlink:href="#aH"/><use transform="matrix(0.013020833333333334,0,0,0.013020833333333334,17.109375,0)" xlink:href="#au"/><use transform="matrix(0.013020833333333334,0,0,0.013020833333333334,25.963541666666664,0)" xlink:href="#ap"/><use transform="matrix(0.013020833333333334,0,0,0.013020833333333334,40.9375,0)" xlink:href="#au"/><use transform="matrix(0.013020833333333334,0,0,0.013020833333333334,49.661458333333336,0)" xlink:href="#aC"/><use transform="matrix(0.013020833333333334,0,0,0.013020833333333334,56.11979166666667,0)" xlink:href="#aA"/><use transform="matrix(0.013020833333333334,0,0,0.013020833333333334,70.1953125,0)" xlink:href="#au"/><use transform="matrix(0.013020833333333334,0,0,0.013020833333333334,78.91927083333333,0)" xlink:href="#aC"/><use transform="matrix(0.013020833333333334,0,0,0.013020833333333334,85.37760416666666,0)" xlink:href="#az"/><use transform="matrix(0.013020833333333334,0,0,0.013020833333333334,100.61197916666666,0)" xlink:href="#aA"/></g><g id="W"><use transform="matrix(0.013020833333333334,0,0,0.013020833333333334,0,0)" xlink:href="#aw"/><use transform="matrix(0.013020833333333334,0,0,0.013020833333333334,17.03125,0)" xlink:href="#ax"/><use transform="matrix(0.013020833333333334,0,0,0.013020833333333334,27.486979166666668,0)" xlink:href="#aC"/><use transform="matrix(0.013020833333333334,0,0,0.013020833333333334,33.9453125,0)" xlink:href="#az"/><use transform="matrix(0.013020833333333334,0,0,0.013020833333333334,49.1796875,0)" xlink:href="#as"/><use transform="matrix(0.013020833333333334,0,0,0.013020833333333334,64.7265625,0)" xlink:href="#aA"/></g><path fill="#e81313" d="M370-1490V0H180v-1490h190" id="ba"/><path fill="#e81313" d="M98-1322v-168h1126v168H757V0H567v-1322H98" id="bb"/><path fill="#e81313" d="M180 0v-1490h908v168H370v486h669v168H370v500h727V0H180" id="bc"/><path fill="#e81313" d="M180 0v-1490h270l367 940c28 72 75 218 110 339 35-117 81-264 110-339l362-940h271V0h-187c2-448-5-837 7-1287-157 497-311 829-483 1287H842C666-458 514-784 354-1284c12 438 5 843 7 1284H180" id="bd"/><g id="X"><use transform="matrix(0.008173828125000001,0,0,0.008173828125000001,0,0)" xlink:href="#ba"/><use transform="matrix(0.008173828125000001,0,0,0.008173828125000001,4.495605468750001,0)" xlink:href="#bb"/><use transform="matrix(0.008173828125000001,0,0,0.008173828125000001,15.301406250000003,0)" xlink:href="#bc"/><use transform="matrix(0.008173828125000001,0,0,0.008173828125000001,25.363388671875004,0)" xlink:href="#bd"/></g><path fill="#e81313" d="M180 0v-1490h528c311 0 458 177 458 395 0 191-114 278-244 313v14c139 9 302 137 302 371 0 225-148 397-499 397H180zm190-168h350c232 0 321-102 321-231 0-149-120-277-311-277H370v508zm0-668h328c160 0 286-101 286-255 0-129-87-231-280-231H370v486" id="be"/><path fill="#e81313" d="M52 0l541-1490h220L1361 0h-200l-149-416H398L254 0H52zm404-582h497c-103-290-145-390-251-756-108 377-145 460-246 756" id="bf"/><path fill="#e81313" d="M180 0v-1490h510c348 0 508 194 508 460 0 198-88 351-276 417L1256 0h-220L726-579c-117 2-238 0-356 1V0H180zm190-747h312c235 0 327-108 327-283 0-177-92-293-329-293H370v576" id="bg"/><path fill="#e81313" d="M783 20c-382 0-661-292-661-764 0-473 279-766 661-766 302 0 548 182 601 489h-190c-42-204-217-313-411-313-268 0-476 208-476 590 0 381 209 588 476 588 195 0 369-110 411-313h190c-52 303-296 489-601 489" id="bh"/><path fill="#e81313" d="M784 20c-382 0-662-292-662-764 0-473 280-766 662-766s660 293 660 766c0 472-278 764-660 764zm0-176c266 0 475-207 475-588 0-383-209-590-475-590-268 0-477 208-477 590 0 380 209 588 477 588" id="bi"/><path fill="#e81313" d="M645 0H180v-1490h484c435 0 692 280 692 742 0 466-257 748-711 748zM370-168h263c363 0 539-218 539-580 0-358-176-574-521-574H370v1154" id="bj"/><g id="Y"><use transform="matrix(0.008173828125000001,0,0,0.008173828125000001,0,0)" xlink:href="#be"/><use transform="matrix(0.008173828125000001,0,0,0.008173828125000001,10.952929687500001,0)" xlink:href="#bf"/><use transform="matrix(0.008173828125000001,0,0,0.008173828125000001,22.502548828125,0)" xlink:href="#bg"/><use transform="matrix(0.008173828125000001,0,0,0.008173828125000001,33.275654296875004,0)" xlink:href="#bh"/><use transform="matrix(0.008173828125000001,0,0,0.008173828125000001,45.50370117187501,0)" xlink:href="#bi"/><use transform="matrix(0.008173828125000001,0,0,0.008173828125000001,58.303916015625006,0)" xlink:href="#bj"/><use transform="matrix(0.008173828125000001,0,0,0.008173828125000001,70.384833984375,0)" xlink:href="#bc"/></g><g id="Z"><use transform="matrix(0.008680555555555556,0,0,0.008680555555555556,0,0)" xlink:href="#ba"/><use transform="matrix(0.008680555555555556,0,0,0.008680555555555556,4.774305555555555,0)" xlink:href="#bb"/><use transform="matrix(0.008680555555555556,0,0,0.008680555555555556,16.25,0)" xlink:href="#bc"/><use transform="matrix(0.008680555555555556,0,0,0.008680555555555556,26.93576388888889,0)" xlink:href="#bd"/></g><path fill="#e81313" d="M180 0v-1490h190v1322h690V0H180" id="bk"/><path fill="#e81313" d="M657 26c-323 0-524-166-541-416h195c15 169 171 246 346 246 202 0 356-106 356-265 5-203-294-238-475-293-239-73-380-191-380-389 0-252 224-419 512-419 294 0 499 171 508 396H992c-17-145-151-228-328-228-193 0-321 102-321 242 0 156 175 211 284 241l149 41c160 44 422 134 422 412 0 244-197 432-541 432" id="bl"/><g id="aa"><use transform="matrix(0.008680555555555556,0,0,0.008680555555555556,0,0)" xlink:href="#bj"/><use transform="matrix(0.008680555555555556,0,0,0.008680555555555556,12.829861111111112,0)" xlink:href="#bc"/><use transform="matrix(0.008680555555555556,0,0,0.008680555555555556,23.515625,0)" xlink:href="#bb"/><use transform="matrix(0.008680555555555556,0,0,0.008680555555555556,33.48090277777778,0)" xlink:href="#bf"/><use transform="matrix(0.008680555555555556,0,0,0.008680555555555556,45.74652777777778,0)" xlink:href="#ba"/><use transform="matrix(0.008680555555555556,0,0,0.008680555555555556,50.520833333333336,0)" xlink:href="#bk"/><use transform="matrix(0.008680555555555556,0,0,0.008680555555555556,60.57291666666667,0)" xlink:href="#bl"/></g></defs></g></svg>